<svg width="100" height="100" viewBox="0 0 100 100" fill="none" xmlns="http://www.w3.org/2000/svg">
  <circle cx="50" cy="50" r="50" fill="#F4E869"/>
  
  <!-- Farmer's hat -->
  <ellipse cx="50" cy="35" rx="20" ry="8" fill="#8B4513"/>
  <ellipse cx="50" cy="32" rx="18" ry="6" fill="#D2691E"/>
  
  <!-- Farmer's head -->
  <circle cx="50" cy="45" r="12" fill="#F4C2A1"/>
  
  <!-- Farmer's hair -->
  <path d="M38 40 Q45 35 50 40 Q55 35 62 40 Q60 45 50 42 Q40 45 38 40Z" fill="#654321"/>
  
  <!-- Farmer's shirt -->
  <ellipse cx="50" cy="65" rx="15" ry="20" fill="#FF69B4"/>
  
  <!-- Farmer's overalls -->
  <rect x="40" y="55" width="20" height="25" rx="3" fill="#4169E1"/>
  <rect x="44" y="58" width="3" height="15" fill="#FFD700"/>
  <rect x="53" y="58" width="3" height="15" fill="#FFD700"/>
  
  <!-- Arms -->
  <ellipse cx="35" cy="62" rx="6" ry="12" fill="#F4C2A1" transform="rotate(-20 35 62)"/>
  <ellipse cx="65" cy="62" rx="6" ry="12" fill="#F4C2A1" transform="rotate(20 65 62)"/>
  
  <!-- Farmer's hands with plants -->
  <circle cx="28" cy="70" r="4" fill="#F4C2A1"/>
  <circle cx="72" cy="70" r="4" fill="#F4C2A1"/>
  
  <!-- Plants in hands -->
  <path d="M25 70 Q20 65 22 62 Q25 65 28 62 Q30 65 28 70" fill="#32CD32"/>
  <path d="M69 70 Q67 65 70 62 Q72 65 75 62 Q77 65 72 70" fill="#32CD32"/>
  
  <!-- Ground/crops -->
  <ellipse cx="50" cy="90" rx="45" ry="15" fill="#228B22"/>
  
  <!-- Crop plants -->
  <path d="M20 85 Q15 80 20 78 Q25 80 20 85" fill="#90EE90"/>
  <path d="M30 87 Q25 82 30 80 Q35 82 30 87" fill="#90EE90"/>
  <path d="M70 87 Q65 82 70 80 Q75 82 70 87" fill="#90EE90"/>
  <path d="M80 85 Q75 80 80 78 Q85 80 80 85" fill="#90EE90"/>
  <path d="M50 88 Q45 83 50 81 Q55 83 50 88" fill="#90EE90"/>
</svg>